<?xml version="1.0" encoding="utf-8"?>
<!-- Generator: Adobe Illustrator 16.0.4, SVG Export Plug-In . SVG Version: 6.00 Build 0)  -->
<!DOCTYPE svg PUBLIC "-//W3C//DTD SVG 1.1//EN" "http://www.w3.org/Graphics/SVG/1.1/DTD/svg11.dtd">
<svg version="1.1" xmlns="http://www.w3.org/2000/svg" xmlns:xlink="http://www.w3.org/1999/xlink" x="0px" y="0px" width="40px"
	 height="40px" viewBox="0 0 40 40" enable-background="new 0 0 40 40" xml:space="preserve">
<g id="Layer_1">
</g>
<g id="Layer_2">
	<path fill="#FFFFFF" d="M5.879,0.9H34.12c2.684,0,4.877,2.194,4.877,4.877v28.242c0,2.683-2.193,4.875-4.877,4.875H5.879
		C3.196,38.894,1,36.702,1,34.019V5.777C1,3.094,3.196,0.9,5.879,0.9z M28.68,5.12c-0.941,0-1.711,0.771-1.711,1.713v4.092
		c0,0.942,0.77,1.712,1.711,1.712h4.295c0.939,0,1.711-0.77,1.711-1.712V6.833c0-0.942-0.771-1.713-1.711-1.713H28.68z
		 M34.702,16.967h-3.344c0.318,1.035,0.488,2.127,0.488,3.263c0,6.317-5.289,11.441-11.812,11.441
		c-6.521,0-11.811-5.124-11.811-11.441c0-1.136,0.173-2.228,0.489-3.263H5.224v16.052c0,0.831,0.679,1.507,1.509,1.507h26.458
		c0.832,0,1.51-0.676,1.51-1.507V16.967z M20.034,12.421c-4.213,0-7.63,3.31-7.63,7.395c0,4.082,3.417,7.394,7.63,7.394
		c4.214,0,7.632-3.312,7.632-7.394C27.667,15.731,24.249,12.421,20.034,12.421z"/>
</g>
</svg>
