<?xml version="1.0" encoding="utf-8"?>
<!-- Generator: Adobe Illustrator 16.0.4, SVG Export Plug-In . SVG Version: 6.00 Build 0)  -->
<!DOCTYPE svg PUBLIC "-//W3C//DTD SVG 1.1//EN" "http://www.w3.org/Graphics/SVG/1.1/DTD/svg11.dtd">
<svg version="1.1" xmlns="http://www.w3.org/2000/svg" xmlns:xlink="http://www.w3.org/1999/xlink" x="0px" y="0px" width="40px"
	 height="40px" viewBox="0 0 40 40" enable-background="new 0 0 40 40" xml:space="preserve">
<g id="Layer_1">
</g>
<g id="Layer_2">
	<g>
		<g>
			<path fill="#FFFFFF" d="M2.421,20.022c-0.082,0-0.151,0.066-0.162,0.157c0,0.001-0.382,3.495-0.382,3.495l0.382,3.416
				c0.011,0.093,0.08,0.158,0.162,0.158c0.083,0,0.149-0.064,0.162-0.155l0.436-3.419l-0.435-3.495
				C2.57,20.086,2.504,20.022,2.421,20.022z"/>
			<path fill="#FFFFFF" d="M0.982,21.36c-0.081,0-0.145,0.062-0.156,0.152l-0.284,2.162l0.284,2.125
				c0.011,0.089,0.075,0.15,0.156,0.15c0.08,0,0.143-0.062,0.156-0.15l0.337-2.125l-0.337-2.162
				C1.126,21.422,1.062,21.36,0.982,21.36z"/>
			<path fill="#FFFFFF" d="M3.951,19.336c-0.103,0-0.185,0.08-0.195,0.191l-0.363,4.146l0.363,3.994
				c0.01,0.113,0.092,0.191,0.195,0.191c0.101,0,0.183-0.078,0.194-0.189l0.413-3.996l-0.412-4.146
				C4.133,19.417,4.052,19.336,3.951,19.336z"/>
			<path fill="#FFFFFF" d="M5.492,19.19c-0.121,0-0.219,0.097-0.229,0.225l-0.344,4.26l0.344,4.123
				c0.009,0.126,0.108,0.224,0.229,0.224c0.119,0,0.217-0.098,0.228-0.224l0.39-4.123l-0.39-4.261
				C5.709,19.286,5.611,19.19,5.492,19.19z"/>
			<polygon fill="#FFFFFF" points="7.307,27.831 7.307,27.832 7.307,27.833 			"/>
			<path fill="#FFFFFF" d="M7.307,19.721c-0.01-0.145-0.123-0.256-0.262-0.256c-0.14,0-0.252,0.111-0.261,0.258L6.46,23.675
				l0.324,4.156c0.009,0.146,0.121,0.258,0.261,0.258c0.139,0,0.251-0.111,0.262-0.258l0.367-4.156L7.307,19.721z"/>
			<path fill="#FFFFFF" d="M8.612,16.956c-0.157,0-0.286,0.128-0.294,0.292l-0.305,6.429l0.305,4.156
				c0.008,0.162,0.137,0.291,0.294,0.291c0.156,0,0.285-0.129,0.295-0.291l0,0l0.344-4.156l-0.344-6.43
				C8.897,17.083,8.768,16.956,8.612,16.956z"/>
			<path fill="#FFFFFF" d="M10.167,15.474c-0.177,0-0.321,0.143-0.328,0.325c0,0-0.285,7.901-0.285,7.901l0.285,4.129
				c0.007,0.181,0.151,0.324,0.328,0.324c0.175,0,0.319-0.144,0.327-0.325v0.003l0.322-4.131l-0.322-7.901
				C10.486,15.617,10.342,15.474,10.167,15.474z"/>
			<path fill="#FFFFFF" d="M11.782,14.76c-0.195,0-0.354,0.157-0.361,0.359l-0.265,8.56l0.265,4.087
				c0.007,0.199,0.166,0.356,0.361,0.356c0.194,0,0.353-0.157,0.361-0.358v0.002l0.299-4.087l-0.299-8.56
				C12.135,14.917,11.977,14.76,11.782,14.76z"/>
			<path fill="#FFFFFF" d="M13.78,14.831c-0.007-0.22-0.18-0.392-0.394-0.392c-0.215,0-0.388,0.172-0.394,0.392l-0.246,8.848
				l0.246,4.062c0.006,0.217,0.179,0.389,0.394,0.389c0.214,0,0.387-0.171,0.394-0.391l0.277-4.059L13.78,14.831z"/>
			<polygon fill="#FFFFFF" points="13.78,27.739 13.78,27.739 13.78,27.741 			"/>
			<path fill="#FFFFFF" d="M15.003,14.632c-0.234,0-0.422,0.187-0.428,0.425L14.35,23.68l0.226,4.022
				c0.005,0.235,0.193,0.424,0.427,0.424c0.233,0,0.421-0.188,0.427-0.426v0.003l0.254-4.023l-0.254-8.624
				C15.424,14.819,15.236,14.632,15.003,14.632z"/>
			<path fill="#FFFFFF" d="M16.632,14.914c-0.253,0-0.456,0.201-0.461,0.458l-0.206,8.309l0.206,3.997
				c0.005,0.254,0.208,0.456,0.461,0.456c0.252,0,0.455-0.202,0.46-0.459v0.003l0.231-3.997l-0.231-8.31
				C17.087,15.115,16.885,14.914,16.632,14.914z"/>
			<path fill="#FFFFFF" d="M18.546,13.387c-0.079-0.053-0.172-0.084-0.273-0.084c-0.097,0-0.188,0.029-0.266,0.08
				c-0.135,0.088-0.225,0.24-0.228,0.413l-0.002,0.093l-0.185,9.791c0,0.006,0.187,3.974,0.187,3.974c0,0.005,0,0.012,0.001,0.017
				c0.005,0.11,0.047,0.214,0.115,0.294c0.091,0.109,0.228,0.179,0.378,0.179c0.134,0,0.256-0.055,0.346-0.145
				c0.089-0.089,0.146-0.212,0.148-0.347l0.021-0.394l0.188-3.576l-0.208-9.886C18.765,13.625,18.677,13.476,18.546,13.387z"/>
			<polygon fill="#FFFFFF" points="18.767,27.653 18.767,27.652 18.767,27.654 18.767,27.652 18.768,27.65 18.767,27.651 
				18.767,27.652 			"/>
			<path fill="#FFFFFF" d="M20.176,12.45c-0.079-0.048-0.17-0.076-0.268-0.076c-0.126,0-0.242,0.045-0.333,0.12
				c-0.117,0.097-0.193,0.243-0.195,0.406l-0.001,0.054l-0.215,10.729l0.109,1.982l0.107,1.931c0.003,0.285,0.24,0.521,0.527,0.521
				c0.286,0,0.522-0.235,0.527-0.524v0.004l0,0l0.234-3.913l0,0l-0.234-10.784C20.432,12.708,20.328,12.542,20.176,12.45z"/>
			<path fill="#FFFFFF" d="M34.671,18.579c-0.655,0-1.282,0.133-1.852,0.371c-0.381-4.313-3.998-7.697-8.411-7.697
				c-1.079,0-2.132,0.212-3.062,0.572c-0.361,0.14-0.458,0.284-0.46,0.563V27.58c0.003,0.293,0.231,0.521,0.516,0.548
				c0.013,0.002,13.269,0,13.269,0c2.644,0,4.787-2.118,4.787-4.762C39.458,20.721,37.315,18.579,34.671,18.579z"/>
		</g>
	</g>
</g>
</svg>
