<?xml version="1.0" encoding="utf-8"?>
<!-- Generator: Adobe Illustrator 16.0.4, SVG Export Plug-In . SVG Version: 6.00 Build 0)  -->
<!DOCTYPE svg PUBLIC "-//W3C//DTD SVG 1.1//EN" "http://www.w3.org/Graphics/SVG/1.1/DTD/svg11.dtd">
<svg version="1.1" xmlns="http://www.w3.org/2000/svg" xmlns:xlink="http://www.w3.org/1999/xlink" x="0px" y="0px" width="40px"
	 height="40px" viewBox="0 0 40 40" enable-background="new 0 0 40 40" xml:space="preserve">
<g id="Layer_1">
</g>
<g id="Layer_2">
	<path fill="#FFFFFF" d="M38.957,8.208c-1.395,0.619-2.894,1.037-4.468,1.225c1.606-0.963,2.84-2.487,3.421-4.304
		c-1.503,0.892-3.168,1.539-4.939,1.888c-1.42-1.512-3.44-2.457-5.678-2.457c-4.296,0-7.778,3.482-7.778,7.778
		c0,0.609,0.068,1.203,0.201,1.772C13.25,13.787,7.519,10.69,3.683,5.984c-0.67,1.149-1.054,2.485-1.054,3.911
		c0,2.698,1.373,5.08,3.461,6.474c-1.275-0.04-2.475-0.391-3.523-0.973c-0.001,0.032-0.001,0.064-0.001,0.098
		c0,3.769,2.682,6.912,6.24,7.627c-0.653,0.178-1.341,0.273-2.05,0.273c-0.501,0-0.988-0.05-1.464-0.14
		c0.99,3.09,3.863,5.339,7.267,5.401c-2.662,2.086-6.016,3.33-9.66,3.33c-0.628,0-1.247-0.037-1.855-0.109
		c3.442,2.207,7.531,3.495,11.924,3.495c14.307,0,22.131-11.853,22.131-22.132c0-0.336-0.008-0.672-0.022-1.006
		C36.595,11.137,37.914,9.768,38.957,8.208z"/>
</g>
</svg>
